HIERARCHY
ROOT hip
{
  OFFSET 0 0 0
  CHANNELS 6 Xposition Yposition Zposition Zrotation Yrotation Xrotation
  JOINT abdomen
  {
    OFFSET 0 20.6881 -0.73152
    CHANNELS 3 Zrotation Xrotation Yrotation
    JOINT chest
    {
      OFFSET 0 11.7043 -0.48768
      CHANNELS 3 Zrotation Xrotation Yrotation
      JOINT neck
      {
        OFFSET 0 22.1894 -2.19456
        CHANNELS 3 Zrotation Xrotation Yrotation
        JOINT head
        {
          OFFSET -0.24384 7.07133 1.2192
          CHANNELS 3 Zrotation Xrotation Yrotation
          JOINT leftEye
          {
            OFFSET 4.14528 8.04674 8.04672
            CHANNELS 3 Zrotation Xrotation Yrotation
            End Site
            {
              OFFSET 1 0 0
            }
          }
          JOINT rightEye
          {
            OFFSET -3.6576 8.04674 8.04672
            CHANNELS 3 Zrotation Xrotation Yrotation
            End Site
            {
              OFFSET 1 0 0
            }
          }
        }
      }
      JOINT rCollar
      {
        OFFSET -2.68224 19.2634 -4.8768
        CHANNELS 3 Zrotation Xrotation Yrotation
        JOINT rShldr
        {
          OFFSET -8.77824 -1.95073 1.46304
          CHANNELS 3 Zrotation Xrotation Yrotation
          JOINT rForeArm
          {
            OFFSET -28.1742 -1.7115 0.48768
            CHANNELS 3 Zrotation Xrotation Yrotation
            JOINT rHand
            {
              OFFSET -22.5879 0.773209 7.07136
              CHANNELS 3 Zrotation Xrotation Yrotation
              JOINT rThumb1
              {
                OFFSET -1.2192 -0.487915 3.41376
                CHANNELS 3 Zrotation Xrotation Yrotation
                JOINT rThumb2
                {
                  OFFSET -3.37035 -0.52449 3.41376
                  CHANNELS 3 Zrotation Xrotation Yrotation
                  End Site
                  {
                    OFFSET -1.78271 -1.18214 1.43049
                  }
                }
              }
              JOINT rIndex1
              {
                OFFSET -7.75947 0.938293 5.60832
                CHANNELS 3 Zrotation Xrotation Yrotation
                JOINT rIndex2
                {
                  OFFSET -2.54057 -0.884171 1.56538
                  CHANNELS 3 Zrotation Xrotation Yrotation
                  End Site
                  {
                    OFFSET -1.62519 -0.234802 1.16502
                  }
                }
              }
              JOINT rMid1
              {
                OFFSET -8.24714 1.18213 3.41376
                CHANNELS 3 Zrotation Xrotation Yrotation
                JOINT rMid2
                {
                  OFFSET -3.10165 -0.590103 1.0647
                  CHANNELS 3 Zrotation Xrotation Yrotation
                  End Site
                  {
                    OFFSET -2.48547 -0.328903 0.83742
                  }
                }
              }
              JOINT rRing1
              {
                OFFSET -8.82822 0.546677 1.51678
                CHANNELS 3 Zrotation Xrotation Yrotation
                JOINT rRing2
                {
                  OFFSET -2.60934 -0.819778 -0.0198488
                  CHANNELS 3 Zrotation Xrotation Yrotation
                  End Site
                  {
                    OFFSET -2.33842 -0.294052 0.168128
                  }
                }
              }
              JOINT rPinky1
              {
                OFFSET -8.27202 -0.0477905 -0.4584
                CHANNELS 3 Zrotation Xrotation Yrotation
                JOINT rPinky2
                {
                  OFFSET -1.82734 -0.647385 -0.700984
                  CHANNELS 3 Zrotation Xrotation Yrotation
                  End Site
                  {
                    OFFSET -1.69225 -0.51767 -0.607171
                  }
                }
              }
            }
          }
        }
      }
      JOINT lCollar
      {
        OFFSET 2.68224 19.2634 -4.8768
        CHANNELS 3 Zrotation Xrotation Yrotation
        JOINT lShldr
        {
          OFFSET 8.77824 -1.95073 1.46304
          CHANNELS 3 Zrotation Xrotation Yrotation
          JOINT lForeArm
          {
            OFFSET 28.1742 -1.7115 0.48768
            CHANNELS 3 Zrotation Xrotation Yrotation
            JOINT lHand
            {
              OFFSET 22.5879 0.773209 7.07136
              CHANNELS 3 Zrotation Xrotation Yrotation
              JOINT lThumb1
              {
                OFFSET 1.2192 -0.487915 3.41376
                CHANNELS 3 Zrotation Xrotation Yrotation
                JOINT lThumb2
                {
                  OFFSET 3.37035 -0.52449 3.41376
                  CHANNELS 3 Zrotation Xrotation Yrotation
                  End Site
                  {
                    OFFSET 1.78271 -1.18214 1.43049
                  }
                }
              }
              JOINT lIndex1
              {
                OFFSET 7.75947 0.938293 5.60832
                CHANNELS 3 Zrotation Xrotation Yrotation
                JOINT lIndex2
                {
                  OFFSET 2.54057 -0.884171 1.56538
                  CHANNELS 3 Zrotation Xrotation Yrotation
                  End Site
                  {
                    OFFSET 1.62519 -0.234802 1.16502
                  }
                }
              }
              JOINT lMid1
              {
                OFFSET 8.24714 1.18213 3.41376
                CHANNELS 3 Zrotation Xrotation Yrotation
                JOINT lMid2
                {
                  OFFSET 3.10165 -0.590103 1.0647
                  CHANNELS 3 Zrotation Xrotation Yrotation
                  End Site
                  {
                    OFFSET 2.48547 -0.328903 0.83742
                  }
                }
              }
              JOINT lRing1
              {
                OFFSET 8.82822 0.546677 1.51678
                CHANNELS 3 Zrotation Xrotation Yrotation
                JOINT lRing2
                {
                  OFFSET 2.60934 -0.819778 -0.0198488
                  CHANNELS 3 Zrotation Xrotation Yrotation
                  End Site
                  {
                    OFFSET 2.33842 -0.294052 0.168128
                  }
                }
              }
              JOINT lPinky1
              {
                OFFSET 8.27202 -0.0477905 -0.4584
                CHANNELS 3 Zrotation Xrotation Yrotation
                JOINT lPinky2
                {
                  OFFSET 1.82734 -0.647385 -0.700984
                  CHANNELS 3 Zrotation Xrotation Yrotation
                  End Site
                  {
                    OFFSET 1.69225 -0.51767 -0.607171
                  }
                }
              }
            }
          }
        }
      }
    }
  }
  JOINT rButtock
  {
    OFFSET -8.77824 4.35084 1.2192
    CHANNELS 3 Zrotation Xrotation Yrotation
    JOINT rThigh
    {
      OFFSET 0 -1.70687 -2.19456
      CHANNELS 3 Zrotation Xrotation Yrotation
      JOINT rShin
      {
        OFFSET 0 -36.8199 0.73152
        CHANNELS 3 Zrotation Xrotation Yrotation
        JOINT rFoot
        {
          OFFSET 0.73152 -45.1104 -5.12064
          CHANNELS 3 Zrotation Xrotation Yrotation
          End Site
          {
            OFFSET -1.1221 -3.69964 12.103
          }
        }
      }
    }
  }
  JOINT lButtock
  {
    OFFSET 8.77824 4.35084 1.2192
    CHANNELS 3 Zrotation Xrotation Yrotation
    JOINT lThigh
    {
      OFFSET 0 -1.70687 -2.19456
      CHANNELS 3 Zrotation Xrotation Yrotation
      JOINT lShin
      {
        OFFSET 0 -36.8199 0.73152
        CHANNELS 3 Zrotation Xrotation Yrotation
        JOINT lFoot
        {
          OFFSET -0.73152 -45.1104 -5.12064
          CHANNELS 3 Zrotation Xrotation Yrotation
          End Site
          {
            OFFSET 1.1221 -3.69964 12.103
          }
        }
      }
    }
  }
}
MOTION
Frames:	5
Frame Time:	0.00833333
39.7576 78.4725 -5.257499999999999 177.420959 20.54326 -174.516074 2.735947 -1.750791 0.0 -3.424132 1.164967 3.45897 -1.127617 16.344977 -101.390913 -148.076739 5.935693 -80.134529 0.00338 0.0 0.001177 -0.002187 -0.0 3.1e-05 -9.65048 34.836444 11.198348 -91.967327 36.229966 136.008209 28.767781 -21.674244 -94.362667 -157.411803 28.548679 132.629353 -175.329784 -12.974912 89.79853 156.047736 -39.9328 101.538627 -151.352946 -17.158631 121.132749 95.745235 -70.676593 42.634116 -169.089653 -33.247293 145.37546 -18.336841 42.115565 14.839631 -145.099687 -1.605307 -178.624249 6.295387 -30.507073 -14.056221 -145.173651 12.067695 -141.822681 1.340714 -2.378013 -2.749902 -0.023173 -0.138765 0.029687 95.787625 -1.176489 166.757303 -179.193716 -8.555991 93.970729 10.517851 0.711018 2.492651 78.030696 38.691024 -42.412134 -12.802112 -20.345662 -21.580913 145.021393 -5.716578 -118.52573 62.960305 57.10488 -45.720449 -68.982302 -80.154551 -40.574918 -2.971557 0.155238 -0.186135 70.381194 -72.129761 87.280218 -14.723684 -0.02345 4.525996 145.696376 13.732478 142.280155 5.94345 -17.3979 8.831148 -0.0 0.001513 0.000488 -2.404365 -27.346762 -70.508471 -63.051229 12.490785 -66.264902 86.305674 -16.812289 172.171219 179.998746 75.750919 0.001294 169.795984 34.718642 -0.0 -4.927278 27.898626 55.355127 93.162468 -69.70788 -25.300191
39.279199999999996 78.7925 -4.2783 177.848041 19.129011 -173.811005 2.516079 -1.973581 24.379535 -1.561192 2.379105 -20.562507 18.197082 9.417146 86.030608 152.039282 -28.815179 100.136493 0.002155 -0.0 -0.00016 0.002155 -0.0 -0.00016 -130.360474 54.595818 134.22563 85.44309 -45.560336 94.30058 -79.522464 -5.596726 -10.775586 144.312402 -80.830096 124.455016 -171.603876 -9.28597 89.950462 11.862457 -59.693736 13.909511 -50.386592 40.826313 40.024637 -86.720128 50.114391 63.897674 -125.64474 49.839894 115.273652 -4.650124 20.781071 4.549152 -145.122369 1.892777 -179.72367 -156.645486 15.302632 178.975835 -43.364608 -47.546424 -42.161607 -159.441403 55.802403 -149.147039 13.742802 42.431898 -15.567903 90.290194 -1.685122 -150.904669 -173.661705 2.90019 93.189716 12.34076 6.456106 1.53829 85.828927 38.631104 -47.955816 -24.891672 -28.476872 -21.445334 -19.567325 -35.040649 5.986898 162.782862 -21.277207 -111.219539 0.220123 0.638442 -0.122022 1.463537 13.045524 -2.256046 -0.004964 0.917552 -0.288103 156.149088 -51.342772 -178.400701 -0.097299 0.258533 -0.091465 147.654559 12.718 143.9447 -179.752325 75.750127 -0.190896 175.647871 47.483238 -174.104951 -13.21826 -57.658192 -72.333474 77.689123 74.079535 -173.387115 -179.983915 75.750516 -0.013235 169.761516 33.840443 53.252141 16.517833 19.821684 -42.587458 108.245249 -33.908225 -25.953201
38.8962 79.1078 -3.1986 178.137085 17.997029 -173.302981 2.225837 -5.50837 126.275453 5.070718 -1.9373 -121.901547 17.367788 16.66048 132.226914 178.131175 -43.673994 154.506981 -0.000204 0.0 -0.002575 -0.000204 0.0 -0.002575 -142.97364 39.4315 147.389766 165.417578 3.769599 141.3359 -4.725616 -9.620958 65.484227 -7.869942 -24.695067 -6.154826 175.880432 -21.257627 88.493274 109.401707 -71.06883 84.263518 -148.885659 -12.610096 120.244396 105.930739 -71.038934 52.298971 68.988059 -80.152551 40.582025 2.470983 1.610638 0.385701 0.0004 0.063846 0.019577 8.350168 20.255524 2.868263 -111.798727 -40.681538 -109.846134 -125.973296 -29.948073 -124.676774 150.16906 21.535323 -155.275432 116.293758 34.523882 -65.599146 -97.825541 -25.471016 43.488382 132.884331 57.408504 -108.987881 -11.110163 -11.092128 0.640487 3.641866 0.752769 4.555225 -0.184647 -0.300306 0.10486 9.466183 25.550171 -8.232462 89.834057 60.702121 -81.26342 -2.580893 2.470553 -0.51149 114.668296 66.731562 -135.092371 -5.977931 26.592514 2.317895 118.627468 -35.448944 116.544205 160.321057 54.420652 147.518122 -0.000192 -0.001648 -0.0 -3.111751 -27.612849 167.320938 25.677642 -52.790271 92.803759 69.044826 -51.298114 153.479631 0.001212 0.00114 0.001818 -9.081166 -41.428113 -6.172873 -9.933084 25.792949 -29.695146 118.004442 -0.844385 -42.248894
38.5341 79.3839 -2.1142000000000003 178.40988 16.916403 -172.767085 4.601658 -1.523345 0.314677 -3.31696 1.539647 4.627902 19.123187 8.846612 90.090106 153.11467 -30.991453 102.211841 5.8e-05 0.0 0.00108 5.8e-05 0.0 0.00108 -143.620144 38.233272 148.080367 99.362711 -54.661706 113.191046 -97.123088 -82.918371 -36.68953 -7.966347 -24.932415 -6.213872 -7.101909 6.829702 1.503147 -145.355389 -51.916738 115.505409 37.215314 -57.917992 -0.644473 98.206862 -64.521902 40.471504 78.539276 -80.918035 49.690488 -129.266172 52.000873 118.247122 0.000731 0.063805 0.020057 -156.365407 -46.139245 177.531209 -135.819469 -11.891939 -133.185531 -147.892945 14.128814 -142.370542 -0.163021 -0.989997 0.219056 95.847124 0.772603 164.776804 -101.380543 -14.798512 111.516522 68.736589 62.685885 -47.526601 4.903914 4.762596 -0.952197 72.385111 24.491971 -67.403383 28.900514 31.616458 -21.337816 88.678307 48.458321 -66.440093 82.839847 61.110287 -74.532707 34.40864 55.068744 -29.254293 145.117678 0.226432 179.199875 153.950502 -14.349106 177.222561 -17.105796 59.931597 -12.734965 25.457973 -40.921154 25.411418 -179.962972 75.749307 -0.030466 176.821978 50.563696 2.41539 -9.576137 46.460986 -58.274077 102.020782 38.684422 0.705651 0.000369 -0.001192 -0.000474 -9.786367 -43.248275 72.620322 40.854809 9.97491 72.452877 -119.259797 -0.534704 154.853234
38.0586 79.5432 -1.0418 178.179924 16.026733 -172.278114 2.570826 -3.610971 89.307291 3.947676 0.965975 -83.691538 6.430954 0.408923 -8.486207 163.563705 19.253477 12.075977 -0.001371 0.0 -0.001342 -0.002299 -0.0 0.001329 -0.272941 1.606848 0.360753 -125.135505 2.597055 170.876385 -173.220736 44.209351 -120.666415 -9.567538 -19.208294 -5.487739 -169.572808 -7.253666 89.929089 171.698124 -23.720528 95.71644 -148.885228 -12.609936 120.245016 -1.299173 22.037318 -4.462174 -0.057178 0.167883 0.032849 -4.951465 21.321143 4.408301 0.00096 0.063866 0.019433 3.304573 44.716429 8.80327 -145.17262 12.06694 -141.824579 -10.974359 -25.321159 -13.336662 155.459735 -3.22792 -161.777251 123.153131 60.842171 -62.692098 84.579667 75.889497 -173.430873 5.418381 -16.045295 4.263188 -51.059619 -41.204159 -12.85648 147.179497 -21.441193 -125.529367 0.326855 0.529998 -0.186855 -87.342671 -60.113418 -35.998551 0.058277 0.167706 -0.032795 114.295257 59.298804 -104.697822 145.11766 0.267821 179.21233 -12.049441 35.302895 5.001968 145.172939 12.068236 141.821887 -8.390556 17.00418 -2.334142 0.0 -8.8e-05 0.000273 -1.592057 -25.114186 0.0 -4.663514 52.642761 -143.090942 169.829444 -5.782171 -133.301371 179.858368 75.748702 0.109161 173.974614 29.440713 180.0 12.027287 -33.871935 156.95173 -81.712585 -52.085892 17.592055
